<?xml version="1.0" encoding="UTF-8"?>
<svg id="Capa_1" data-name="Capa 1" xmlns="http://www.w3.org/2000/svg" viewBox="0 0 231.88 152.24">
  <defs>
    <style>
      .cls-1 {
        fill: #000;
        stroke-width: 0px;
      }
    </style>
  </defs>
  <path class="cls-1" d="M67.68,75.06c13.33-2.58,25.7-9.02,35.89-17.93,10.25-8.97,18.26-20.48,23.02-33.24,2.67-7.15,4.23-14.69,4.6-22.31.03-.61-.48-1.33-1.1-1.45-4.79-.94-7.98,3.25-10.25,6.83-2.96,4.68-5.72,9.49-8.35,14.36-5.19,9.63-9.83,19.55-14.43,29.47-8.71,18.79-17.32,37.76-29.13,54.85-10.68,15.47-24.05,29.54-40.8,38.43-4.4,2.34-9.35,4.96-14.43,5.18-4.05.18-9.27-1.95-9.75-6.57s4.02-7.96,7.45-10.03c4.49-2.72,9.32-4.91,14.28-6.61,9.98-3.41,20.58-4.76,31.09-3.95,9.06.7,18.97,2.87,27.75-.53,2.13-.82,4.04-1.94,5.83-3.36,1.51-1.2-.62-3.31-2.12-2.12-7.66,6.07-18.57,4.26-27.55,3.36-10.67-1.06-21.26-.5-31.62,2.4-5.12,1.44-10.1,3.39-14.84,5.81-4.24,2.17-8.7,4.67-11.45,8.69-2.58,3.79-2.43,8.61.73,12.02,3.34,3.6,8.38,4.4,13.02,3.55,5.02-.93,9.86-3.46,14.3-5.9,4.2-2.31,8.2-4.96,12.01-7.87,7.67-5.87,14.51-12.75,20.6-20.23,12.96-15.9,22.43-34.1,31.13-52.57,4.79-10.18,9.4-20.46,14.37-30.56,2.48-5.04,5.04-10.04,7.77-14.95,1.32-2.39,2.68-4.76,4.09-7.1s2.7-4.75,4.39-6.84c1.21-1.49,2.98-3.29,5.09-2.88l-1.1-1.45c-.64,13.11-5.09,25.8-12.24,36.76-7.12,10.92-16.94,20.11-28.38,26.36-6.47,3.54-13.44,6.06-20.69,7.47-1.89.37-1.09,3.26.8,2.89h0Z"/>
  <path class="cls-1" d="M99,104.28c-4.28,2.45-4.32,8.82-1.07,12.14,4.14,4.24,11.11,2.95,15.39-.3,2.81-2.13,4.93-4.96,6.9-7.86,1.09-1.6-1.51-3.1-2.59-1.51-3.14,4.61-7.65,10.21-13.95,9.27-2.33-.35-4.29-1.74-4.89-4.07-.48-1.87-.05-4.07,1.72-5.09,1.68-.96.17-3.55-1.51-2.59h0Z"/>
  <path class="cls-1" d="M148.34,100.37c-3.37.11-6.73.59-9.98,1.45-3,.8-6.39,1.81-8.95,3.64-2.33,1.66-3.6,4.23-2.87,7.09.65,2.55,2.68,4.72,5.09,5.73,3.48,1.46,7.3.91,10.91.35.8-.12,1.25-1.13,1.05-1.85-.24-.85-1.04-1.17-1.85-1.05-3.02.47-6.7,1.11-9.52-.48-1.92-1.08-3.77-3.73-2.49-5.92.69-1.18,1.99-1.86,3.19-2.42,1.61-.76,3.31-1.35,5.01-1.86,3.39-1.01,6.88-1.57,10.42-1.69,1.93-.06,1.93-3.06,0-3h0Z"/>
  <path class="cls-1" d="M147.77,115.84c9.13,1.3,18.6-3.3,22.97-11.5.48-.9.04-1.88-.9-2.2-5.69-1.99-12.39-.07-16.45,4.32-2.01,2.17-3.51,5.03-3.51,8.04,0,1.47.37,2.95,1.28,4.12,1.12,1.44,2.8,2,4.56,2.14,2.25.17,4.56.02,6.81.01,2.5,0,5.01-.02,7.51-.03,1.93,0,1.93-3.01,0-3-3.58.01-7.15.03-10.73.04-2.4,0-5.97.61-6.4-2.57-.66-4.77,4.17-8.93,8.25-10.23,2.6-.83,5.3-.85,7.88.05l-.9-2.2c-3.68,6.91-11.76,11.23-19.58,10.12-.81-.11-1.6.2-1.85,1.05-.2.7.25,1.73,1.05,1.85h0Z"/>
  <path class="cls-1" d="M203.8,103.24c-8.91-1.92-18.21,5.13-18.8,14.21-.05.81.73,1.5,1.5,1.5.89,0,1.4-.69,1.5-1.5.6-4.83.28-9.73-.88-14.46-.46-1.87-3.35-1.08-2.89.8,1.1,4.48,1.34,9.09.77,13.67h3c.46-7.08,8.07-12.81,15-11.32,1.88.41,2.69-2.49.8-2.89h0Z"/>
  <path class="cls-1" d="M209.36,108.3c-1.71,3.16-.56,7.04,2.03,9.36,3.19,2.86,7.79,2.82,11.67,1.61,3.4-1.06,7.44-3.09,8.56-6.77.96-3.14-.9-6.12-3.9-7.1-3.21-1.06-7.07-.28-10.12.96-.75.3-1.28,1-1.05,1.85.2.71,1.09,1.36,1.85,1.05,2.11-.86,4.4-1.4,6.68-1.29,1.61.08,3.5.64,3.77,2.46.39,2.68-2.93,4.54-4.98,5.38-2.82,1.15-6.44,2-9.29.48-2.17-1.15-3.93-4.08-2.64-6.46.92-1.7-1.67-3.21-2.59-1.51h0Z"/>
</svg>